<svg width="220" height="198" viewBox="0 0 220 198" fill="none" xmlns="http://www.w3.org/2000/svg">
<path d="M35 22C35 13.7157 41.7157 7 50 7H188C196.284 7 203 13.7157 203 22V165C203 173.284 196.284 180 188 180H50C41.7157 180 35 173.284 35 165V22Z" fill="#DADADA"/>
<path d="M95 0C103.284 0 110 6.71573 110 15V28H205C213.284 28 220 34.7157 220 43V183C220 191.284 213.284 198 205 198H15C6.71573 198 1.9329e-07 191.284 0 183V15C0 6.71573 6.71573 2.41597e-07 15 0H95Z" fill="white"/>
<path d="M96.083 0C100.219 -1.80784e-07 103.963 1.67463 106.677 4.38184C107.157 4.75708 107.621 5.16452 108.062 5.60645L140.648 38.1924C146.506 44.0502 146.506 53.5474 140.648 59.4053L136.405 63.6484C130.547 69.506 121.05 69.5062 115.192 63.6484L87.5439 36H50C41.7157 36 35 29.2843 35 21V15C35 6.71573 41.7157 3.62117e-07 50 0H96.083Z" fill="white"/>
</svg>
